<?xml version="1.0" encoding="UTF-8"?>
<!DOCTYPE svg PUBLIC "-//W3C//DTD SVG 1.1//EN" "http://www.w3.org/Graphics/SVG/1.1/DTD/svg11.dtd">
<svg version="1.1" xmlns="http://www.w3.org/2000/svg" xmlns:xlink="http://www.w3.org/1999/xlink" x="0px" y="0px" width="400" height="400" viewBox="0, 0, 945.085, 945.085">
  <g id="Layer 1">
    <path d="M472.543,944.085 C212.117,944.085 1,732.968 1,472.543 C1,212.117 212.117,1 472.543,1 C732.968,1 944.085,212.117 944.085,472.543 C944.085,732.968 732.968,944.085 472.543,944.085 z" fill="#FFCEAA" stroke="#E6B591" stroke-width="10"/>
    <path d="M444.668,434.076 C438.12,440.866 432.164,460.725 423.893,483.176 C416.819,502.378 406.493,524.776 397.418,540.826 C386.333,559.329 378.918,567.201 370.168,574.076 C361.418,581.201 347.793,587.326 324.793,590.451 C304.077,593.302 262.493,596.976 231.293,597.376 C202.289,597.748 125.767,594.169 100.893,585.376 C75.293,576.326 68.543,564.201 63.543,554.201 C48.278,523.671 42.043,495.201 39.543,484.826 C35.395,467.614 32.842,455.188 26.509,443.604 C18.293,428.576 8.793,427.951 3.043,420.326 C0.668,414.201 0.293,381.951 2.293,373.701 C14.293,363.176 71.493,355.576 113.493,351.976 C157.743,348.183 193.093,347.376 215.093,347.776 C234.113,348.122 286.328,349.254 344.325,360.187 C376.093,366.176 400.87,374.496 432.418,380.451 C451.093,383.976 472.293,383.576 472.293,383.576 C472.293,383.576 493.993,383.976 512.668,380.451 C544.216,374.496 568.993,366.176 600.76,360.187 C658.757,349.254 710.973,348.122 729.993,347.776 C751.993,347.376 787.342,348.183 831.593,351.976 C873.593,355.576 930.793,363.176 942.793,373.701 C944.793,381.951 944.418,414.201 942.043,420.326 C936.293,427.951 926.793,428.576 918.576,443.604 C912.244,455.188 909.69,467.614 905.543,484.826 C903.043,495.201 896.807,523.671 881.543,554.201 C876.543,564.201 869.793,576.326 844.193,585.376 C819.319,594.169 742.796,597.748 713.793,597.376 C682.593,596.976 641.009,593.302 620.293,590.451 C597.293,587.326 583.668,581.201 574.918,574.076 C566.168,567.201 558.752,559.329 547.668,540.826 C538.593,524.776 528.267,502.378 521.193,483.176 C512.922,460.725 506.965,440.866 500.418,434.076 C490.293,423.576 472.543,424.701 472.543,424.701 C472.543,424.701 454.793,423.576 444.668,434.076 z M123.191,369.594 C102.437,372.473 93.856,375.463 86.506,378.806 C79.043,382.201 69.084,389.851 64.873,397.481 C60.543,405.326 58.543,410.451 57.168,422.701 C55.984,433.245 56.043,440.034 57.043,451.951 C58.043,463.867 59.849,477.266 61.793,488.076 C63.793,499.201 68.293,519.326 72.043,528.576 C75.793,537.826 79.581,548.509 86.918,556.201 C94.668,564.326 99.573,568.225 112.043,572.076 C129.043,577.326 152.418,581.326 236.168,582.326 C255.795,582.56 314.753,578.999 344.918,570.201 C356.918,566.701 368.293,556.076 373.757,547.661 C379.22,539.246 382.543,532.576 388.627,519.806 C394.711,507.037 404.043,479.451 406.418,465.951 C408.781,452.517 409.089,450.826 409.068,437.866 C409.043,422.451 403.918,411.951 397.098,404.671 C392.021,399.25 386.879,389.195 334.918,377.576 C314.793,373.076 289.293,367.576 235.061,365.161 C219.161,364.453 169.293,363.201 123.191,369.594 z M710.024,365.161 C655.793,367.576 630.293,373.076 610.168,377.576 C558.206,389.195 553.064,399.25 547.987,404.671 C541.168,411.951 536.043,422.451 536.017,437.866 C535.996,450.826 536.304,452.517 538.668,465.951 C541.043,479.451 550.375,507.037 556.459,519.806 C562.543,532.576 565.865,539.246 571.329,547.661 C576.793,556.076 588.168,566.701 600.168,570.201 C630.332,578.999 689.29,582.56 708.918,582.326 C792.668,581.326 816.043,577.326 833.043,572.076 C845.512,568.225 850.418,564.326 858.168,556.201 C865.505,548.509 869.293,537.826 873.043,528.576 C876.793,519.326 881.293,499.201 883.293,488.076 C885.236,477.266 887.043,463.867 888.043,451.951 C889.043,440.034 889.101,433.245 887.918,422.701 C886.543,410.451 884.543,405.326 880.213,397.481 C876.001,389.851 866.043,382.201 858.58,378.806 C851.229,375.463 842.648,372.473 821.894,369.594 C775.793,363.201 725.924,364.453 710.024,365.161 z" fill="#000000" stroke="#000000" stroke-width="10"/>
  </g>
  <defs/>
</svg>
